<?xml version="1.0" standalone="no"?>
<!DOCTYPE svg PUBLIC "-//W3C//DTD SVG 20010904//EN"
 "http://www.w3.org/TR/2001/REC-SVG-20010904/DTD/svg10.dtd">
<svg version="1.0" xmlns="http://www.w3.org/2000/svg"
 width="261.000000pt" height="261.000000pt" viewBox="0 0 261.000000 261.000000"
 preserveAspectRatio="xMidYMid meet">
<metadata>
Created by potrace 1.14, written by Peter Selinger 2001-2017
</metadata>
<g transform="translate(0.000000,261.000000) scale(0.100000,-0.100000)"
fill="#000000" stroke="none">
<path d="M23 2309 c-14 -5 -16 -30 -15 -210 0 -112 1 -211 1 -219 1 -13 27
-15 178 -13 98 1 185 0 193 -3 13 -3 15 -97 15 -779 0 -510 3 -776 10 -778 5
-2 123 -3 260 -3 l250 1 5 781 5 781 385 -1 385 -1 2 -770 c1 -424 2 -775 2
-780 1 -12 505 -14 516 -3 4 4 7 355 7 781 l0 774 177 1 c97 0 184 1 194 1 16
1 17 18 17 221 0 169 -3 220 -12 221 -66 4 -2563 3 -2575 -2z"/>
</g>
</svg>
